<?xml version="1.0" encoding="utf-8" ?><svg xmlns="http://www.w3.org/2000/svg" xmlns:xlink="http://www.w3.org/1999/xlink" width="2048" height="2048" viewBox="0 0 2048 2048"><path fill="#F9F9F9" d="M0 0L2048 0L2048 2048L0 2048L0 0Z"/><path fill="#020356" d="M733.055 454.572C865.82 449.732 977.427 553.319 982.482 686.076C987.536 818.833 884.129 930.607 751.38 935.875C618.329 941.156 506.244 837.461 501.178 704.401C496.112 571.341 599.988 459.424 733.055 454.572Z"/><path fill="#F9F9F9" d="M727.367 459.327C807.232 447.356 849.72 521.172 860.401 590.198C875.16 685.578 877.226 805.738 823.415 890.243C808.041 914.388 785.316 926.38 758.036 931.303C666.692 940.689 630.909 859.542 621.078 781.317C609.778 691.392 607.732 574.883 661.081 496.818C676.381 474.429 701.323 462.934 727.367 459.327Z"/><path fill="#020356" d="M1338.2 458.491L1547.96 458.704L1548.11 615.796C1548.13 667.116 1556.56 715.423 1517.05 755.06C1502.63 769.422 1484.65 779.683 1464.95 784.786C1447.18 789.209 1407.91 787.689 1388.07 787.688L1267.75 787.572C1222.19 786.854 1176.67 809.811 1155.39 851.285C1151.15 859.558 1148.73 868.335 1146.12 877.215C1146.01 875.311 1145.94 873.405 1145.91 871.497L1145.87 641.397L1145.92 576.868C1146 539.209 1143.9 512.316 1172.79 483.093C1182.71 472.884 1195.16 465.489 1208.87 461.661C1225.01 457.286 1253.1 458.579 1270.86 458.593L1338.2 458.491Z"/><path fill="#F9F9F9" d="M1224.71 684.132L1405.79 684.064C1413.2 684.065 1466.35 683.574 1470.64 684.749C1472.56 688.062 1471.92 687.248 1471.71 691.776C1448.03 692.19 1231.78 693.324 1225.94 691.003C1224.18 687.943 1224.79 688.203 1224.71 684.132Z"/><path fill="#F9F9F9" d="M1225.11 541.407C1283.57 541.82 1342.04 541.843 1400.5 541.475C1410.14 541.458 1465.54 540.403 1470.48 542.073C1472.25 545.03 1471.62 544.748 1471.59 548.822C1448.18 550.185 1230.42 550.21 1225.3 547.674C1224.03 543.797 1224.26 545.798 1225.11 541.407Z"/><path fill="#F9F9F9" d="M1225.04 610.289L1385.72 610.625L1438.64 610.485C1447.3 610.435 1461.58 609.927 1469.67 610.707C1471.96 613.299 1471.24 613.196 1471.74 617.424L1298.9 617.195L1250.39 617.284C1244.94 617.289 1230.43 617.598 1225.59 616.713C1223.94 613.667 1224.5 614.487 1225.04 610.289Z"/><path fill="#020356" d="M973.439 458.513C995.744 459.283 1025.23 457.153 1046.28 458.868C1088.83 457.658 1135.44 458.738 1178.37 458.705C1172.36 461.102 1169.37 462.432 1163.69 465.558C1115.89 498.614 1123.93 551.856 1123.96 603.125L1123.97 730.508L1123.87 870.124C1123.84 895.459 1123.38 921.003 1124.6 946.284C1124.99 954.264 1133.12 982.946 1140.68 984.695C1140.58 988.823 1140.3 987.263 1143.3 991.186C1145.04 993.009 1148.74 996.7 1151.15 996.838C1180.59 998.525 1218.13 997.782 1247.02 997.781L1376.13 997.711C1395.39 997.68 1416.58 998.652 1435.69 997.159C1495.89 992.457 1535.02 947.232 1546.27 891.233C1546.89 885.721 1547.46 879.58 1548.26 874.152C1548.94 882.651 1549.7 892.613 1548.08 901.04C1544.19 936.965 1532.21 964.249 1503.41 987.45C1487.31 1000.52 1468.03 1009.08 1447.54 1012.26C1432.12 1014.66 1410.85 1013.92 1394.76 1013.89L1320.15 1013.83L1087.25 1013.88C1051.59 1013.86 1004.86 1012.42 970.012 1013.94C970.894 1011.39 970.356 1012.58 973.8 1010.69L974.911 1010.34C1037.41 990.184 1027.1 927.723 1027.1 875.33L1027.09 746.503L1027.14 607.303C1027.15 575.651 1030.54 536.351 1020.86 506.274C1012.78 481.154 996.592 469.477 973.439 458.513Z"/><path fill="#6B6876" d="M1548.26 874.152C1548.94 882.651 1549.7 892.613 1548.08 901.04C1547.98 898.025 1547.84 895.013 1547.65 892.003L1546.27 891.233C1546.89 885.721 1547.46 879.58 1548.26 874.152Z"/><path fill="#020356" d="M1021.9 1162.33C1166.46 1142.75 1187.12 1367.14 1055.24 1385.76C993.778 1391.69 948.148 1361.21 937.26 1298.59C926.395 1236.1 954.46 1173.03 1021.9 1162.33Z"/><path fill="#F9F9F9" d="M1030.26 1166.19C1086.31 1159.77 1097.47 1240.11 1095.84 1279.86C1094.32 1316.83 1087.96 1367.29 1047.88 1381.39C1017.08 1384.87 1000.64 1364.65 991.301 1338.02C975.563 1293.16 973.873 1184.9 1030.26 1166.19Z"/><path fill="#020356" d="M964.422 1014.58C959.474 1021.16 954.476 1027.31 948.487 1033C932.934 1047.52 913.592 1057.33 892.696 1061.32C805.416 1077.82 753.292 1001 673.46 995.331C654.736 994.001 634.831 1003.18 624.27 1018.72C621.271 1023.13 619.367 1028.54 615.624 1032.11C613.141 1031.76 614.229 1032.3 612.412 1030.41C613.806 1000.08 654.011 968.133 679.683 955.757C791.44 901.88 906.027 1074.66 984.596 936.172C986.802 961.656 983.729 981.398 971.183 1004.06C971.968 1006.89 972.18 1007.13 972.461 1010.01L973.8 1010.69C970.356 1012.58 970.894 1011.39 970.012 1013.94L964.422 1014.58Z"/><path fill="#F0EBF0" d="M971.183 1004.06C971.968 1006.89 972.18 1007.13 972.461 1010.01L973.8 1010.69C970.356 1012.58 970.894 1011.39 970.012 1013.94L964.422 1014.58L971.183 1004.06Z"/><path fill="#020356" d="M759.878 1432C772.69 1429.09 787.606 1430.68 799.912 1435.13C816.834 1442.56 832.318 1456.07 837.796 1473.83C852.184 1520.49 840.583 1560.72 794.594 1578.06C810.949 1595.68 854.781 1614.87 876.66 1596.73C880.445 1593.59 882.464 1588.45 887.494 1587L889.527 1587.71C891.061 1592.96 886.265 1601.82 883.88 1606.71C866.427 1642.53 819.034 1631.28 792.22 1613.37C765.846 1601.38 756.635 1596.93 736.501 1620.65C746.214 1586.42 770.75 1592.7 796.015 1604.39C796.416 1604.5 796.818 1604.61 797.22 1604.71C791.453 1594.98 789.884 1589.4 786.471 1578.66C778.06 1580.05 768.159 1579.31 759.721 1578.64C682.818 1565.87 691.287 1441.89 759.878 1432Z"/><path fill="#F9F9F9" d="M759.878 1432C772.69 1429.09 787.606 1430.68 799.912 1435.13C797.325 1437.4 797.133 1437.17 796.343 1440.43L797.458 1445.3C812.072 1465.71 814.733 1499.35 811.862 1523.53C809.571 1542.83 804.282 1557.2 788.694 1569.42C776.793 1555.88 765.484 1550.3 748.921 1560.48C730.42 1532.51 731.731 1467.35 755.713 1441.78C759.52 1437.73 763.797 1435.82 768.818 1433.76C766.377 1432.16 762.941 1432.27 759.878 1432Z"/><path fill="#070749" d="M759.878 1432C772.69 1429.09 787.606 1430.68 799.912 1435.13C797.325 1437.4 797.133 1437.17 796.343 1440.43L797.458 1445.3C788.306 1435.55 782.166 1433 768.818 1433.76C766.377 1432.16 762.941 1432.27 759.878 1432Z"/><path fill="#F9F9F9" d="M749.938 1566.54C754.253 1562.04 757.557 1558.66 764.139 1558.85C772.98 1559.11 781.096 1563.96 783.13 1572.79C781.745 1575.61 781.787 1574.8 777.85 1576.37C773.804 1576.7 771.256 1576.52 767.173 1576.31C759.433 1573.71 756.343 1572.15 749.938 1566.54Z"/><path fill="#070749" d="M767.173 1576.31C771.256 1576.52 773.804 1576.7 777.85 1576.37C781.726 1578.06 781.636 1577.94 785.918 1578.27L786.471 1578.66C778.06 1580.05 768.159 1579.31 759.721 1578.64C763.081 1577.91 764.035 1577.51 767.173 1576.31Z"/><path fill="#020356" d="M1032.95 1438.58C1047.56 1430.53 1060.19 1430.16 1076.36 1431.34C1166.11 1447.77 1151.01 1598.24 1051.25 1578.72C984.734 1565.7 981.152 1464.12 1032.95 1438.58Z"/><path fill="#F9F9F9" d="M1048.57 1440.01C1056.91 1433.63 1060.91 1433.02 1071.17 1433.76C1110.02 1447.54 1108.47 1515.5 1098.08 1547.57C1086.68 1582.77 1053.65 1589.09 1037.12 1553.65C1023.87 1522.32 1023.51 1466.63 1048.57 1440.01Z"/><path fill="#070749" d="M1032.95 1438.58C1047.56 1430.53 1060.19 1430.16 1076.36 1431.34L1071.17 1433.76C1060.91 1433.02 1056.91 1433.63 1048.57 1440.01C1048.81 1439.15 1049.03 1437.4 1049.17 1436.46L1047.88 1435.1C1042.73 1434.85 1038.87 1438.39 1032.95 1438.58Z"/><path fill="#020356" d="M1583.15 1433.21C1618.83 1433.01 1660.06 1426.43 1688.48 1452.81C1727.5 1489.02 1709.37 1572.18 1652.54 1576.05L1651.37 1576.28C1643.91 1577.7 1589.44 1579.63 1585.39 1576.85L1586.23 1575.74C1594.45 1567.59 1593.18 1565.27 1593.23 1553.15L1593.35 1481.97C1593.35 1470 1593.72 1457.59 1592.79 1445.67C1592.28 1439.1 1588.14 1436.7 1583.15 1433.21Z"/><path fill="#F9F9F9" d="M1621.34 1435.83C1626.53 1435.8 1633.47 1435.45 1638.46 1436.4C1672.76 1442.89 1680.05 1479.09 1679.23 1508.53C1678.49 1535.33 1669.08 1564.53 1641.59 1574.26C1635.33 1574.92 1627.59 1575.12 1621.21 1575.41L1621.34 1435.83Z"/><path fill="#28244F" d="M1621.21 1575.41C1627.59 1575.12 1635.33 1574.92 1641.59 1574.26C1645.71 1577.07 1646.61 1575.84 1652.54 1576.05L1651.37 1576.28C1643.91 1577.7 1589.44 1579.63 1585.39 1576.85L1586.23 1575.74C1589.83 1577.29 1618.92 1577.69 1621.21 1575.41Z"/><path fill="#F9F9F9" d="M508.32 1433.99C515.888 1432.19 559.325 1432.54 567.316 1433.9C609.521 1436.74 634.805 1472.14 631.663 1513.05C628.968 1548.14 611.282 1566.1 578.298 1575.6C576.085 1574.72 575.582 1574.47 573.543 1573.24L573.002 1570.64C566.56 1573.32 553.022 1576.98 546.112 1574.32C544.515 1573.7 544.879 1572.87 544.234 1570.51L543.296 1574.61C538.139 1577.58 516.42 1577.11 510.905 1574.55C517.644 1565.78 516.053 1552.34 516.067 1541.55C516.107 1510.59 516.148 1479.6 515.881 1448.65C515.816 1441.05 513.687 1438.99 508.32 1433.99Z"/><path fill="#020356" d="M508.32 1433.99C515.888 1432.19 559.325 1432.54 567.316 1433.9L558.056 1434.56L557.452 1435.69C553.835 1435.76 547.605 1436.06 544.226 1435.64L544.308 1524.4C544.329 1538.42 544.944 1557.03 544.234 1570.51L543.296 1574.61C538.139 1577.58 516.42 1577.11 510.905 1574.55C517.644 1565.78 516.053 1552.34 516.067 1541.55C516.107 1510.59 516.148 1479.6 515.881 1448.65C515.816 1441.05 513.687 1438.99 508.32 1433.99Z"/><path fill="#28244F" d="M508.32 1433.99C515.888 1432.19 559.325 1432.54 567.316 1433.9L558.056 1434.56L557.452 1435.69C553.835 1435.76 547.605 1436.06 544.226 1435.64L543.543 1434.5C538.032 1433.5 516.103 1434.26 508.32 1433.99Z"/><path fill="#020356" d="M567.316 1433.9C609.521 1436.74 634.805 1472.14 631.663 1513.05C628.968 1548.14 611.282 1566.1 578.298 1575.6C576.085 1574.72 575.582 1574.47 573.543 1573.24L573.002 1570.64C607.159 1549.68 608.585 1486.75 589.343 1455.21C581.982 1443.14 570.806 1438.16 557.452 1435.69L558.056 1434.56L567.316 1433.9Z"/><path fill="#020356" d="M666.827 1166.46C684.777 1166.75 702.732 1166.64 720.677 1166.14C718.244 1167.34 715.779 1168.52 713.419 1169.86C707.015 1173.48 701.772 1178.28 699.401 1185.45C695.15 1198.29 697.322 1320.58 697.288 1344.63C697.272 1355.56 699.093 1370.83 696.285 1381.3L694.094 1382.04C687.484 1380.08 681.814 1370.48 677.452 1364.54C666.316 1348.53 646.786 1325.37 634.37 1309.29L546.457 1195L546.321 1286.29C546.319 1308.1 544.049 1341.21 549.949 1361.37C553.06 1372.01 564.089 1376.96 573.338 1381.07C555.821 1381.19 538.303 1381.19 520.786 1381.07L524.007 1379.3C533.641 1374.11 541.056 1365.54 541.2 1353.98C541.863 1299.03 542.718 1243.54 540.809 1188.67C540.489 1179.49 523.615 1170.27 521.669 1166.45C540.432 1166.8 559.199 1166.94 577.966 1166.85C615.551 1216.21 656.03 1266.54 692.837 1315.99C692.81 1293.67 695.812 1199.67 689.243 1183.48C685.119 1173.32 676.237 1170.26 666.827 1166.46Z"/><path fill="#020356" d="M1454.06 1168.67C1462.66 1168.37 1502.22 1166.95 1507.6 1170.19C1508.85 1180.68 1508.11 1201.95 1508.1 1213.48C1508.09 1222.78 1508.56 1241.97 1507.85 1250.68C1507.91 1253.87 1507.55 1258.64 1509.2 1261.02C1524.77 1267 1550.18 1254.38 1564.71 1250.07C1569.01 1248.79 1579.78 1250.49 1584.56 1251.27C1572.14 1263.78 1567.68 1277.58 1562.17 1294.2C1558.38 1284.13 1554.9 1276.93 1544.82 1271.45C1534.45 1265.81 1520.85 1263.13 1509.39 1266.58C1507.15 1269.39 1508.03 1267.79 1507.52 1272.03C1508.6 1279.02 1508.21 1299.96 1508.2 1307.79L1508.08 1377.56C1541.47 1378.28 1574.78 1380.36 1600.44 1355.09C1615.24 1340.52 1619.29 1327.13 1627.17 1308.59L1627.92 1309.05C1628.74 1314.93 1616.94 1371.91 1615.23 1381.08L1450.17 1380.93C1459.96 1375.41 1466.03 1371.56 1466.45 1359.06C1466.83 1347.7 1466.58 1336.38 1466.53 1325.02L1466.33 1259.57L1466.24 1208.97C1466.19 1191.52 1469.85 1179.3 1454.06 1168.67Z"/><path fill="#020356" d="M893.377 1166.69C910.538 1166.81 931.274 1167.4 948.086 1166.18C929.624 1173.3 924.03 1177.17 915.834 1196.19C892.179 1251.08 872.732 1310.36 849.702 1365.1C848.672 1368.71 844.983 1377.54 843.49 1381.44L819.022 1381.22C800.341 1337.04 784.299 1289.13 766.091 1244.47C757.834 1224.21 750.638 1199.31 739.486 1180.53C735.548 1173.9 728.252 1170.03 721.546 1166.76L806.39 1166.8C794.551 1171.72 787.607 1175.61 790.698 1190.42C793.674 1204.68 799.934 1219.16 805.162 1232.79L834.538 1309.38C839.186 1321.59 846.249 1337.73 849.376 1350.17C853.05 1344.52 867.627 1305.35 870.865 1297.11C879.373 1275.61 887.765 1254.07 896.041 1232.49C900.579 1220.86 905.316 1209.33 909.51 1197.57C915.939 1179.55 909.345 1173.24 893.377 1166.69Z"/><path fill="#020356" d="M1434.81 1349.9C1419.65 1373.29 1395.1 1383.9 1368.23 1386.62C1303.43 1391.89 1260.3 1352.74 1254.31 1289.08C1248.79 1230.47 1281.2 1167.48 1345.58 1162.95C1352.11 1163.84 1364.48 1161.12 1368.37 1164.59L1366.19 1167.3C1328.56 1175.57 1308.55 1208.57 1302.67 1244.96C1297.6 1281.44 1299.08 1326.79 1320.72 1357.84C1349.79 1399.54 1407.8 1384.05 1423.27 1339.55C1428.78 1323.69 1429.03 1313.99 1431.08 1297.62C1433.05 1315.42 1435.06 1331.96 1434.81 1349.9Z"/><path fill="#020356" d="M1456.01 1577.85C1461.54 1573.95 1465.81 1571.04 1466.01 1563.73C1467.05 1526.43 1466 1488.92 1466.52 1451.58C1466.66 1441.96 1464.98 1440.38 1458.35 1433.9L1459.5 1433.22C1491.38 1433.34 1559.94 1423.11 1568.59 1465.63C1575.29 1498.56 1555.39 1514.89 1525.99 1521.62C1519.39 1522.2 1498.21 1521.77 1495.01 1524.09L1494.19 1526.73C1497.31 1546.09 1486.94 1565.38 1504.84 1577.76L1456.01 1577.85Z"/><path fill="#F9F9F9" d="M1494.35 1435.94C1507.75 1435.71 1519.52 1434.94 1529.76 1445.31C1538.44 1454.09 1540.88 1467.08 1540.37 1478.97C1539.67 1495.48 1532.68 1509.16 1518.98 1518.27C1521.88 1520.97 1522.2 1520.75 1525.99 1521.62C1519.39 1522.2 1498.21 1521.77 1495.01 1524.09L1494.19 1526.73C1492.62 1523.63 1493.57 1520.33 1494.53 1517.32C1494.29 1490.19 1494.23 1463.06 1494.35 1435.94Z"/><path fill="#070749" d="M1494.53 1517.32L1495.7 1519.43C1502.58 1520.63 1512.25 1519.89 1518.98 1518.27C1521.88 1520.97 1522.2 1520.75 1525.99 1521.62C1519.39 1522.2 1498.21 1521.77 1495.01 1524.09L1494.19 1526.73C1492.62 1523.63 1493.57 1520.33 1494.53 1517.32Z"/><path fill="#020356" d="M1162.28 1167.13C1184.62 1165.87 1212.08 1166.68 1234.94 1166.78C1226.81 1171.17 1219.67 1176 1218.98 1186.41C1218.25 1197.26 1218.63 1208.58 1218.66 1219.51L1218.65 1277.27L1218.63 1334.01C1218.63 1348.27 1215.18 1369.2 1228.84 1377.01C1230.87 1378.17 1231.53 1378.74 1232.6 1380.89C1210.16 1381.72 1182.57 1380.99 1159.76 1380.97L1163.83 1378.54C1173.52 1372.87 1176.29 1368.86 1176.69 1357.43C1177.08 1346.6 1176.95 1335.83 1176.96 1325L1176.92 1262.14C1176.92 1237.46 1177.73 1206.78 1175.78 1182.19C1175.28 1175.84 1167.48 1170.37 1162.28 1167.13Z"/><path fill="#020356" d="M483.46 1166.53L509.237 1166.21C503.393 1169.34 497.446 1172.52 494.268 1178.63C492.653 1181.74 492.062 1184.65 491.825 1188.12C490.675 1204.96 490.041 1359.06 492.722 1366.84C495.423 1374.68 501.822 1377.73 508.738 1381.09L458.318 1381L432.613 1381C437.934 1378.05 443.775 1374.99 447.01 1369.61C449.252 1365.88 449.501 1361.38 449.764 1357.14C450.791 1340.6 451.681 1189.16 448.781 1181.57C445.836 1173.85 439.483 1170.47 432.692 1166.67C449.615 1166.82 466.538 1166.78 483.46 1166.53Z"/><path fill="#020356" d="M1548.03 763.795C1548.93 772.227 1550.02 788.852 1548.06 797.113C1544.91 828.993 1532.3 855.332 1507.25 875.827C1472.57 904.196 1442.98 901.997 1401.74 901.942L1310.03 901.748C1297.74 901.714 1284.7 902.064 1272.49 901.677C1220.76 900.038 1176.41 922.952 1150.71 969.069C1149.11 970.197 1148.37 970.617 1146.68 971.583L1145.6 970.709C1145.81 968.02 1145.97 966.293 1145.7 963.581L1145.51 961.765C1147.86 950.864 1160.47 933.046 1168.25 925.141C1211.96 880.783 1254.89 885.701 1309.74 885.742L1395.14 885.842C1435.24 885.888 1462.87 889.103 1497.87 863.983C1526.35 843.541 1540.73 813.247 1546.38 779.341L1548.03 763.795Z"/><path fill="#6B6876" d="M1548.03 763.795C1548.93 772.227 1550.02 788.852 1548.06 797.113C1547.77 790.905 1548.51 786.669 1547.69 780.004L1546.38 779.341L1548.03 763.795Z"/><path fill="#020356" d="M361.525 1433.11C374.411 1433.38 387.299 1433.51 400.188 1433.51C416.112 1454.78 432.316 1475.84 448.795 1496.68C455.083 1504.68 471.15 1524.13 475.631 1531.81C478.766 1523.3 475.673 1459.99 474.881 1447.99C474.517 1442.48 466.221 1436.32 461.35 1433.16C472.406 1433.2 483.942 1433.08 494.955 1433.45C489.198 1436.69 482.638 1440.19 481.75 1447.22C476.665 1487.47 482.908 1534.73 479.634 1574.64L479.641 1576.82L478.082 1577.77C468.957 1575.66 389.802 1459.68 379.81 1455.34C379.335 1453.06 378.56 1451.31 377.747 1449.13L376.259 1448.66C371.053 1441 369.49 1438.3 361.525 1433.11Z"/><path fill="#020356" d="M1141.64 1433.14L1257.68 1433.13L1259.3 1443.44C1258.33 1449.67 1259.42 1450.38 1253.18 1453.09C1240.94 1438.81 1230.97 1436.35 1213.2 1435.57L1213.09 1520.53C1213.07 1534.91 1212.37 1551.24 1213.88 1565.43C1214.56 1571.87 1218.39 1574.16 1223.32 1577.69C1207.19 1578.08 1190.42 1577.84 1174.23 1577.83C1181.21 1573.09 1184.31 1571.34 1184.76 1562.08C1185.44 1548.19 1185.07 1534.21 1185.08 1520.3L1185.14 1435.97C1157.17 1435.71 1148.03 1447.32 1136.08 1470.05C1137.45 1458.3 1139.81 1444.96 1141.64 1433.14Z"/><path fill="#020356" d="M955.251 1433.26L969.846 1433.15L987.073 1433.38C974.967 1440.36 973.807 1446.2 972.553 1460.08C969.878 1489.66 980.864 1540.42 962.727 1564.96C946.386 1586.48 900.688 1583.39 881.453 1567.29C855.047 1545.17 871.343 1485.34 866.924 1453.67C865.524 1443.63 866.006 1440.98 858.381 1434.29L857.363 1433.42C863.958 1433.31 897.911 1432.06 901.088 1434.21C897.775 1438.36 895.041 1440.96 894.792 1446.48C893.432 1476.29 893.884 1506.51 894.43 1536.36C894.892 1561.67 911.255 1575.61 936.525 1573.93C973.718 1571.27 970.498 1535.4 969.656 1507.98C969.192 1497.59 970.055 1487.08 969.77 1476.7C969.226 1456.94 973.641 1445.07 955.251 1433.26Z"/><path fill="#020356" d="M1723.9 1433.98C1735.8 1434.25 1747.71 1434.35 1759.62 1434.25C1759.61 1442.84 1759.13 1478.49 1760.63 1484.55L1760.63 1496.99C1783.81 1496.85 1794.15 1497.93 1803.22 1474.13L1803.82 1526.67C1794.88 1500.25 1785.77 1501.5 1760.46 1499.77C1759.91 1518.76 1760.5 1538.6 1760.35 1557.66C1760.27 1567.56 1762.72 1572.24 1770.58 1577.77L1721.23 1577.97C1736.5 1568.7 1732.88 1558.19 1732.66 1541.36C1732.22 1508.77 1733.42 1476.02 1731.87 1443.54C1731.66 1439.26 1726.98 1436.2 1723.9 1433.98Z"/><path fill="#020356" d="M268.497 1433.73L299.175 1433.24L331.863 1519.74C337.459 1534.61 342.78 1549.73 348.997 1564.32C351.289 1569.7 353.63 1573.1 358.968 1575.44L359.547 1577.1C357.246 1578.39 317.494 1578.51 313.38 1577.62L312.99 1575.64C315.935 1571.37 318.982 1569.03 318.069 1564.49C315.321 1550.81 306.604 1535.19 302.88 1522.33L301.764 1518.89C298.071 1511.8 282.278 1467.86 279.442 1459C278.584 1455.62 278.863 1455.1 276.853 1452.44C273.446 1445.96 271.264 1440.53 268.497 1433.73Z"/><path fill="#020356" d="M1273.5 1434.06C1284.17 1434.94 1297.6 1434.53 1308.49 1434.49C1308.47 1440.69 1307.86 1452.35 1309.88 1457.65C1310.27 1470.61 1309.86 1483.19 1310.08 1495.99L1310.47 1498.68C1308.72 1515.01 1310.06 1557.35 1310.17 1575.33C1307.54 1577.99 1278.18 1576.71 1272.23 1576.99L1273.21 1576.27C1277.58 1573.11 1280.43 1570.42 1281.08 1564.5C1281.81 1557.88 1281.74 1551.21 1281.68 1544.53C1281.4 1512.05 1281.97 1479.49 1281.13 1447.03C1280.96 1440.32 1278.19 1438.02 1273.5 1434.06Z"/><path fill="#020356" d="M1398.54 1176.55C1398.19 1172.67 1396.8 1171.64 1398.34 1169.12L1402.72 1168.49C1415.47 1174.7 1428.88 1181.69 1434.23 1195.98C1436.94 1203.22 1436.59 1211.25 1433.25 1218.22C1429.81 1225.39 1423.62 1230.88 1416.08 1233.43C1400.88 1238.54 1384.21 1231.44 1380.43 1215.4C1379.83 1212.87 1378.66 1208.68 1380.56 1206.31C1390.87 1194.92 1399.79 1194.83 1398.54 1176.55Z"/><path fill="#F9F9F9" d="M276.853 1452.44C278.863 1455.1 278.584 1455.62 279.442 1459C282.278 1467.86 298.071 1511.8 301.764 1518.89L302.88 1522.33C286.296 1522.47 269.711 1522.44 253.127 1522.24C248.392 1534.95 238.02 1553.65 239.246 1566.39C239.82 1572.35 243.754 1574.65 248.241 1577.81C236.546 1577.99 224.455 1577.74 212.725 1577.64C215.038 1576.69 217.317 1575.66 219.555 1574.54C228.636 1569.94 233.581 1562.25 237.033 1552.96C249.123 1520.4 266.572 1485.25 276.853 1452.44Z"/><path fill="#070749" d="M276.853 1452.44C278.863 1455.1 278.584 1455.62 279.442 1459C273.06 1468.49 260.203 1506.18 254.299 1519C265.855 1519.07 291.272 1519.91 301.764 1518.89L302.88 1522.33C286.296 1522.47 269.711 1522.44 253.127 1522.24C248.392 1534.95 238.02 1553.65 239.246 1566.39C239.82 1572.35 243.754 1574.65 248.241 1577.81C236.546 1577.99 224.455 1577.74 212.725 1577.64C215.038 1576.69 217.317 1575.66 219.555 1574.54C228.636 1569.94 233.581 1562.25 237.033 1552.96C249.123 1520.4 266.572 1485.25 276.853 1452.44Z"/><path fill="#020356" d="M1454.06 1168.67L1453.51 1167.98L1453.92 1166.91C1458.7 1166.52 1480.97 1166.3 1484.88 1166.69C1502.86 1168.45 1595.5 1163.46 1604.06 1168.1C1608.75 1182.49 1614.66 1209.23 1618.08 1224.5C1601.42 1197.75 1592.11 1184.96 1561.83 1173.35C1541.53 1169.46 1528.09 1169.59 1507.6 1170.19C1502.22 1166.95 1462.66 1168.37 1454.06 1168.67Z"/><path fill="#070749" d="M1454.06 1168.67L1453.51 1167.98L1453.92 1166.91C1458.7 1166.52 1480.97 1166.3 1484.88 1166.69C1502.86 1168.45 1595.5 1163.46 1604.06 1168.1C1600.84 1170.17 1566.1 1166.21 1557.09 1169.09C1558.4 1172.87 1559.25 1169.51 1561.83 1173.35C1541.53 1169.46 1528.09 1169.59 1507.6 1170.19C1502.22 1166.95 1462.66 1168.37 1454.06 1168.67Z"/><defs><linearGradient id="gradient_0" gradientUnits="userSpaceOnUse" x1="1342.7207" y1="1547.1981" x2="1369.8984" y2="1579.1843"><stop offset="0" stop-color="#1C1639"/><stop offset="1" stop-color="#00005D"/></linearGradient></defs><path fill="url(#gradient_0)" d="M1389.32 1524.72C1388.68 1537.87 1382.04 1564.2 1379.41 1577.74C1363.91 1577.81 1282.01 1580 1272.23 1576.99C1278.18 1576.71 1307.54 1577.99 1310.17 1575.33L1312.16 1575.08C1318.07 1574.38 1325.7 1575.08 1331.86 1574.75C1367.49 1572.87 1378.5 1555.01 1389.32 1524.72Z"/><defs><linearGradient id="gradient_1" gradientUnits="userSpaceOnUse" x1="1787.0389" y1="1458.256" x2="1812.9767" y2="1428.0992"><stop offset="0" stop-color="#231E4B"/><stop offset="1" stop-color="#000058"/></linearGradient></defs><path fill="url(#gradient_1)" d="M1723.9 1433.98C1731.9 1432.42 1754.01 1432.88 1762.97 1432.95C1783.27 1433.13 1803.98 1432.95 1824.27 1433.28C1827.13 1445.37 1831.21 1460.76 1833.34 1472.74C1812.04 1438.25 1799.99 1435.28 1760.54 1436.1C1760.61 1451.4 1761.16 1469.47 1760.63 1484.55C1759.13 1478.49 1759.61 1442.84 1759.62 1434.25C1747.71 1434.35 1735.8 1434.25 1723.9 1433.98Z"/><path fill="#070749" d="M1273.5 1434.06C1281.33 1432.57 1304.83 1432.93 1313.79 1433.05C1333.57 1433.3 1354.3 1432.84 1373.99 1433.37L1377.55 1449.07C1379.47 1456.68 1381.76 1465.01 1383.42 1472.61C1382.51 1471.18 1373.82 1457.75 1373.55 1457.12C1371.64 1455.06 1369.69 1453.03 1367.7 1451.04C1351.32 1434.83 1331.09 1435.92 1310.02 1435.94C1310.03 1443.17 1309.98 1450.41 1309.88 1457.65C1307.86 1452.35 1308.47 1440.69 1308.49 1434.49C1297.6 1434.53 1284.17 1434.94 1273.5 1434.06Z"/><path fill="#070749" d="M376.259 1448.66L377.747 1449.13C378.56 1451.31 379.335 1453.06 379.81 1455.34C380.623 1487.64 378.211 1530.95 381.988 1562.95C382.851 1570.26 392.221 1574.76 398.353 1577.86C386.798 1577.61 374.738 1577.93 363.145 1578.08C370.777 1573.33 376.432 1567.33 376.359 1557.81C376.087 1522.26 378.188 1483.99 376.259 1448.66Z"/><defs><linearGradient id="gradient_2" gradientUnits="userSpaceOnUse" x1="1318.9855" y1="1489.3988" x2="1355.208" y2="1498.8604"><stop offset="0" stop-color="#161446"/><stop offset="1" stop-color="#00005A"/></linearGradient></defs><path fill="url(#gradient_2)" d="M1310.08 1495.99C1329.72 1496.26 1341.57 1498.88 1353.21 1480.15C1355.64 1483.11 1358.79 1487.2 1361.42 1489.84C1357.29 1498.19 1352.27 1507.75 1348.67 1516.22C1340.18 1498.35 1328 1499.08 1310.47 1498.68L1310.08 1495.99Z"/><path fill="#070749" d="M1345.58 1162.95C1363.87 1159.23 1385.31 1162.08 1402.72 1168.49L1398.34 1169.12C1396.8 1171.64 1398.19 1172.67 1398.54 1176.55C1388.51 1165.35 1380.25 1166.42 1366.19 1167.3L1368.37 1164.59C1364.48 1161.12 1352.11 1163.84 1345.58 1162.95Z"/><path fill="#070749" d="M544.234 1570.51C544.879 1572.87 544.515 1573.7 546.112 1574.32C553.022 1576.98 566.56 1573.32 573.002 1570.64L573.543 1573.24C575.582 1574.47 576.085 1574.72 578.298 1575.6C565.807 1577.59 520.122 1579.44 508.712 1577.03L508.407 1575.69L510.905 1574.55C516.42 1577.11 538.139 1577.58 543.296 1574.61L544.234 1570.51Z"/><path fill="#070749" d="M1145.51 961.765L1145.7 963.581C1145.97 966.293 1145.81 968.02 1145.6 970.709L1146.68 971.583C1148.37 970.617 1149.11 970.197 1150.71 969.069C1147.06 976.865 1145.36 982.798 1143.3 991.186C1140.3 987.263 1140.58 988.823 1140.68 984.695C1141.03 976.343 1142.84 969.587 1145.51 961.765Z"/><path fill="#070749" d="M1259.3 1443.44C1260.97 1452.93 1262.56 1462.44 1264.07 1471.95C1260.31 1464.27 1258.28 1459.95 1253.18 1453.09C1259.42 1450.38 1258.33 1449.67 1259.3 1443.44Z"/></svg>